<?xml version="1.0" encoding="UTF-8"?><svg id="_レイヤー_2" xmlns="http://www.w3.org/2000/svg" viewBox="0 0 372.06 78.48"><defs><style>.cls-1{stroke-width:.39px;}.cls-1,.cls-2,.cls-3,.cls-4,.cls-5,.cls-6,.cls-7,.cls-8,.cls-9,.cls-10,.cls-11,.cls-12,.cls-13,.cls-14,.cls-15,.cls-16,.cls-17,.cls-18,.cls-19,.cls-20,.cls-21,.cls-22,.cls-23,.cls-24,.cls-25,.cls-26,.cls-27,.cls-28,.cls-29,.cls-30,.cls-31,.cls-32{fill:none;stroke:#fff;stroke-miterlimit:10;}.cls-2{stroke-width:.1px;}.cls-3{stroke-width:.19px;}.cls-4{stroke-width:.28px;}.cls-5{stroke-width:.14px;}.cls-6{stroke-width:.42px;}.cls-7{stroke-width:.21px;}.cls-33{fill:#fff;}.cls-8{stroke-width:.23px;}.cls-9{stroke-width:.22px;}.cls-10{stroke-width:.33px;}.cls-11{stroke-width:.13px;}.cls-12{stroke-width:.32px;}.cls-13{stroke-width:.16px;}.cls-14{stroke-width:.09px;}.cls-15{stroke-width:.35px;}.cls-16{stroke-width:.11px;}.cls-17{stroke-width:.18px;}.cls-18{stroke-width:.37px;}.cls-19{stroke-width:.36px;}.cls-20{stroke-width:.41px;}.cls-21{stroke-width:.4px;}.cls-22{stroke-width:.27px;}.cls-23{stroke-width:.3px;}.cls-24{stroke-width:.15px;}.cls-25{stroke-width:.07px;}.cls-26{stroke-width:.31px;}.cls-27{stroke-width:.17px;}.cls-28{stroke-width:.34px;}.cls-29{stroke-width:.24px;}.cls-30{stroke-width:.08px;}.cls-31{stroke-width:.25px;}.cls-32{stroke-width:.26px;}</style></defs><g id="_レイヤー_1-2"><g><path class="cls-6" d="M40.72,1.11c8.91-2.52,23.45-.02,29.15,10.99,6.58,11.28-5.46,20.7,.54,29.07,5.18,6.33,13.62,4,19.04,10.97,6.6,7.84,8.04,24.59-6.13,26.1-18.59,.85-47.51-13.47-53.23-20.96-4.96-7.06,7.15-11.54,.6-18.48-4.74-5.13-14.12-3.54-20.44-8.48-1.04-.76-6.07-5.11-1.49-10.52C14.15,12.27,30.54,3.36,40.72,1.11Z"/><path class="cls-20" d="M40.98,1.63c8.86-2.39,23.02,.23,28.51,10.87,6.32,10.93-5.45,20.04,.38,28.14,4.99,6.12,13.23,3.86,18.47,10.58,6.36,7.58,7.44,23.55-6.05,25.28-17.74,1.3-45.81-12.46-51.32-19.89-4.81-6.96,6.88-11.42,.51-18.16-4.62-5-13.69-3.39-20.01-8.25-1.01-.72-6.2-5.1-1.76-10.42C14.98,12.45,30.86,3.81,40.98,1.63Z"/><path class="cls-21" d="M41.24,2.17c8.79-2.25,22.57,.47,27.85,10.73,6.07,10.58-5.42,19.39,.23,27.21,4.81,5.9,12.84,3.72,17.9,10.2,6.12,7.33,6.89,22.55-5.96,24.47-16.92,1.69-44.12-11.51-49.42-18.87-4.66-6.85,6.6-11.28,.42-17.82-4.5-4.86-13.25-3.25-19.56-8.02-.98-.69-6.3-5.07-2.02-10.3C15.81,12.64,31.22,4.27,41.24,2.17Z"/><path class="cls-1" d="M41.52,2.72c8.71-2.12,22.09,.68,27.17,10.58,5.82,10.23-5.39,18.74,.09,26.29,4.63,5.69,12.44,3.58,17.33,9.83,5.89,7.08,6.38,21.58-5.86,23.66-16.13,2.02-42.43-10.62-47.53-17.89-4.5-6.73,6.32-11.13,.33-17.46-4.38-4.73-12.81-3.11-19.09-7.78-.95-.67-6.37-5.03-2.26-10.17C16.66,12.82,31.6,4.73,41.52,2.72Z"/><path class="cls-18" d="M41.8,3.29c8.6-1.98,21.61,.88,26.47,10.41,5.57,9.88-5.35,18.08-.05,25.37,4.45,5.48,12.04,3.44,16.76,9.45,5.66,6.83,5.9,20.66-5.74,22.86-15.38,2.3-40.76-9.78-45.66-16.94-4.36-6.59,6.04-10.96,.25-17.08-4.25-4.59-12.37-2.97-18.59-7.55-.92-.64-6.42-4.98-2.48-10.03,4.78-6.77,19.27-14.58,29.06-16.5Z"/><path class="cls-19" d="M42.1,3.87c8.48-1.85,21.1,1.06,25.76,10.23,5.32,9.53-5.29,17.43-.17,24.45,4.27,5.27,11.63,3.3,16.19,9.08,5.44,6.58,5.47,19.76-5.62,22.07-14.65,2.53-39.09-8.99-43.81-16.03-4.2-6.45,5.77-10.76,.17-16.68-4.13-4.45-11.92-2.84-18.08-7.31-.89-.61-6.44-4.92-2.69-9.87,4.59-6.59,18.63-14.13,28.27-15.94Z"/><path class="cls-15" d="M42.4,4.47c8.34-1.72,20.57,1.22,25.02,10.04,5.07,9.18-5.23,16.78-.29,23.53,4.1,5.07,11.22,3.16,15.61,8.71,5.23,6.33,5.07,18.89-5.48,21.28-13.96,2.71-37.43-8.25-41.98-15.15-4.06-6.3,5.49-10.55,.09-16.26-4-4.3-11.47-2.7-17.55-7.07-.86-.58-6.43-4.84-2.88-9.7,4.37-6.42,17.99-13.67,27.46-15.38Z"/><path class="cls-28" d="M42.72,5.08c8.19-1.59,20.02,1.36,24.27,9.83,4.83,8.83-5.15,16.13-.4,22.61,3.92,4.86,10.81,3.02,15.03,8.35,5.02,6.07,4.69,18.05-5.34,20.49-13.28,2.86-35.79-7.55-40.15-14.3-3.91-6.14,5.22-10.32,0-15.81-3.87-4.16-11.03-2.58-17-6.82-.82-.56-6.4-4.76-3.05-9.52,4.15-6.24,17.33-13.21,26.62-14.81Z"/><path class="cls-10" d="M43.05,5.7c8.02-1.47,19.46,1.48,23.5,9.61,4.59,8.48-5.07,15.48-.5,21.69,3.75,4.65,10.39,2.88,14.45,7.98,4.81,5.82,4.34,17.22-5.18,19.7-12.62,2.97-34.15-6.89-38.34-13.48-3.76-5.97,4.95-10.07-.07-15.35-3.73-4.01-10.58-2.45-16.43-6.58-.79-.53-6.34-4.67-3.19-9.32,3.92-6.07,16.67-12.75,25.76-14.25Z"/><path class="cls-12" d="M43.38,6.34c7.83-1.35,18.87,1.59,22.71,9.37,4.35,8.14-4.97,14.84-.59,20.78,3.58,4.45,9.97,2.74,13.87,7.62,4.6,5.57,4.02,16.41-5.02,18.91-11.99,3.04-32.53-6.28-36.55-12.69-3.61-5.79,4.68-9.81-.14-14.88-3.6-3.86-10.12-2.32-15.85-6.33-.76-.51-6.26-4.57-3.32-9.1,3.68-5.9,16.01-12.29,24.88-13.68Z"/><path class="cls-26" d="M43.73,6.99c7.63-1.23,18.26,1.68,21.91,9.11,4.11,7.79-4.87,14.19-.67,19.87,3.4,4.25,9.55,2.61,13.28,7.26,4.4,5.32,3.71,15.62-4.86,18.12-11.36,3.09-30.91-5.7-34.76-11.92-3.46-5.61,4.41-9.52-.2-14.38-3.46-3.71-9.67-2.2-15.25-6.08-.72-.48-6.16-4.46-3.42-8.87,3.44-5.72,15.33-11.82,23.98-13.11Z"/><path class="cls-23" d="M44.08,7.66c7.41-1.12,17.64,1.76,21.08,8.85,3.88,7.44-4.75,13.55-.74,18.96,3.23,4.04,9.12,2.47,12.69,6.9,4.19,5.07,3.43,14.85-4.68,17.33-10.76,3.11-29.31-5.17-32.99-11.18-3.31-5.41,4.14-9.22-.26-13.87-3.32-3.56-9.22-2.08-14.64-5.83-.69-.46-6.04-4.33-3.5-8.63,3.2-5.54,14.65-11.36,23.05-12.53Z"/><path class="cls-4" d="M44.45,8.34c7.18-1.01,16.99,1.82,20.24,8.57,3.65,7.09-4.63,12.9-.8,18.05,3.07,3.84,8.69,2.34,12.09,6.55,3.99,4.82,3.16,14.08-4.5,16.53-10.16,3.1-27.72-4.66-31.24-10.46-3.16-5.21,3.88-8.91-.32-13.34-3.18-3.41-8.76-1.97-14.02-5.58-.65-.43-5.9-4.21-3.55-8.37,2.97-5.36,13.97-10.88,22.1-11.95Z"/><path class="cls-22" d="M44.82,9.03c6.93-.91,16.33,1.86,19.38,8.28,3.42,6.74-4.49,12.26-.85,17.15,2.9,3.64,8.26,2.2,11.49,6.19,3.79,4.57,2.9,13.33-4.31,15.74-9.58,3.07-26.15-4.19-29.5-9.77-3.01-5,3.62-8.58-.38-12.79-3.03-3.25-8.31-1.85-13.38-5.32-.62-.41-5.74-4.07-3.59-8.1,2.73-5.17,13.28-10.41,21.13-11.38Z"/><path class="cls-32" d="M45.2,9.74c6.67-.81,15.64,1.89,18.51,7.97,3.2,6.39-4.34,11.62-.89,16.25,2.73,3.44,7.83,2.07,10.89,5.84,3.58,4.32,2.66,12.59-4.12,14.94-9.01,3.02-24.58-3.75-27.77-9.09-2.86-4.78,3.37-8.23-.42-12.23-2.89-3.1-7.85-1.74-12.73-5.07-.59-.39-5.56-3.92-3.6-7.81,2.5-4.98,12.58-9.93,20.13-10.8Z"/><path class="cls-31" d="M45.6,10.46c6.4-.72,14.94,1.9,17.61,7.65,2.98,6.05-4.18,10.98-.93,15.35,2.57,3.24,7.4,1.94,10.29,5.5,3.38,4.07,2.44,11.85-3.92,14.14-8.45,2.95-23.04-3.34-26.06-8.44-2.71-4.56,3.12-7.87-.47-11.66-2.74-2.94-7.4-1.63-12.07-4.81-.55-.37-5.36-3.77-3.58-7.51,2.27-4.78,11.88-9.44,19.12-10.22Z"/><path class="cls-29" d="M46,11.19c6.11-.63,14.21,1.9,16.7,7.31,2.76,5.7-4.02,10.34-.95,14.45,2.41,3.05,6.96,1.81,9.68,5.15,3.18,3.82,2.22,11.13-3.72,13.34-7.89,2.87-21.51-2.96-24.36-7.81-2.56-4.33,2.88-7.5-.5-11.07-2.59-2.78-6.94-1.52-11.4-4.55-.52-.34-5.14-3.61-3.55-7.19,2.05-4.58,11.17-8.95,18.09-9.63Z"/><path class="cls-8" d="M46.41,11.93c5.81-.54,13.46,1.89,15.77,6.97,2.55,5.35-3.84,9.71-.96,13.56,2.25,2.85,6.52,1.69,9.07,4.81,2.97,3.58,2.02,10.41-3.51,12.53-7.34,2.77-19.99-2.61-22.68-7.19-2.41-4.09,2.64-7.11-.54-10.47-2.44-2.62-6.49-1.42-10.72-4.29-.49-.32-4.91-3.44-3.49-6.86,1.84-4.36,10.46-8.46,17.04-9.05Z"/><path class="cls-9" d="M46.82,12.69c5.49-.47,12.7,1.86,14.83,6.61,2.35,5-3.65,9.07-.96,12.66,2.09,2.66,6.09,1.56,8.46,4.47,2.77,3.33,1.82,9.69-3.3,11.73-6.81,2.65-18.49-2.28-21.02-6.6-2.26-3.85,2.4-6.71-.56-9.85-2.29-2.46-6.04-1.32-10.03-4.02-.45-.3-4.66-3.26-3.4-6.52,1.63-4.15,9.75-7.96,15.97-8.47Z"/><path class="cls-7" d="M47.25,13.46c5.17-.39,11.91,1.82,13.87,6.24,2.15,4.66-3.45,8.44-.95,11.78,1.93,2.47,5.65,1.44,7.85,4.13,2.56,3.09,1.64,8.99-3.08,10.92-6.27,2.53-17.02-1.98-19.37-6.03-2.1-3.6,2.18-6.3-.58-9.23-2.13-2.3-5.59-1.22-9.34-3.76-.42-.28-4.4-3.08-3.29-6.16,1.43-3.92,9.03-7.45,14.89-7.89Z"/><path class="cls-3" d="M47.68,14.24c4.83-.33,11.11,1.77,12.89,5.85,1.95,4.31-3.24,7.81-.94,10.89,1.77,2.27,5.21,1.32,7.24,3.8,2.36,2.84,1.47,8.28-2.86,10.11-5.75,2.39-15.56-1.7-17.74-5.47-1.95-3.35,1.96-5.88-.59-8.59-1.98-2.14-5.14-1.12-8.64-3.49-.38-.26-4.12-2.89-3.16-5.79,1.25-3.68,8.31-6.94,13.79-7.3Z"/><path class="cls-17" d="M48.12,15.03c4.48-.27,10.28,1.7,11.9,5.46,1.76,3.96-3.02,7.18-.91,10.01,1.61,2.09,4.77,1.2,6.63,3.47,2.15,2.6,1.3,7.59-2.63,9.3-5.23,2.24-14.12-1.44-16.13-4.93-1.79-3.1,1.74-5.45-.59-7.95-1.82-1.97-4.7-1.02-7.93-3.23-.35-.24-3.84-2.69-3.01-5.4,1.07-3.44,7.6-6.42,12.68-6.72Z"/><path class="cls-27" d="M48.57,15.84c4.12-.21,9.44,1.62,10.89,5.05,1.58,3.62-2.79,6.55-.87,9.13,1.46,1.9,4.33,1.08,6.01,3.14,1.95,2.36,1.14,6.9-2.41,8.48-4.72,2.09-12.7-1.21-14.54-4.41-1.64-2.84,1.54-5.02-.59-7.29-1.66-1.81-4.25-.92-7.22-2.96-.32-.21-3.53-2.49-2.83-5,.91-3.19,6.88-5.9,11.55-6.14Z"/><path class="cls-13" d="M49.03,16.65c3.75-.17,8.58,1.53,9.87,4.63,1.4,3.27-2.55,5.92-.82,8.25,1.3,1.71,3.89,.97,5.4,2.82,1.75,2.12,.99,6.21-2.17,7.67-4.21,1.92-11.31-1-12.97-3.91-1.48-2.58,1.34-4.57-.57-6.63-1.5-1.64-3.81-.83-6.5-2.69-.29-.19-3.22-2.28-2.64-4.59,.76-2.93,6.16-5.37,10.41-5.56Z"/><path class="cls-24" d="M49.49,17.48c3.37-.12,7.7,1.42,8.83,4.2,1.22,2.93-2.3,5.3-.77,7.38,1.16,1.52,3.45,.86,4.79,2.51,1.55,1.89,.85,5.53-1.94,6.86-3.71,1.75-9.94-.81-11.43-3.42-1.32-2.32,1.15-4.12-.55-5.96-1.34-1.47-3.37-.74-5.78-2.42-.25-.17-2.89-2.07-2.42-4.17,.62-2.66,5.44-4.83,9.26-4.97Z"/><path class="cls-5" d="M49.96,18.31c2.98-.09,6.8,1.3,7.77,3.76,1.05,2.59-2.04,4.68-.7,6.51,1,1.34,3.01,.75,4.18,2.2,1.34,1.66,.72,4.86-1.7,6.05-3.21,1.57-8.59-.65-9.9-2.96-1.16-2.05,.97-3.65-.52-5.29-1.18-1.31-2.94-.65-5.06-2.14-.22-.15-2.56-1.85-2.18-3.73,.5-2.39,4.73-4.29,8.11-4.39Z"/><path class="cls-11" d="M50.44,19.16c2.58-.06,5.88,1.17,6.7,3.3,.89,2.24-1.77,4.06-.62,5.64,.86,1.16,2.57,.64,3.57,1.89,1.15,1.43,.59,4.2-1.46,5.24-2.73,1.38-7.27-.5-8.4-2.51-1-1.78,.79-3.19-.48-4.61-1.01-1.14-2.5-.56-4.33-1.87-.19-.13-2.22-1.63-1.93-3.28,.38-2.1,4.02-3.75,6.95-3.81Z"/><path class="cls-16" d="M50.92,20.01c2.17-.03,4.94,1.03,5.62,2.84,.73,1.9-1.49,3.44-.53,4.78,.71,.98,2.14,.54,2.96,1.59,.95,1.2,.48,3.54-1.21,4.44-2.25,1.19-5.98-.37-6.93-2.08-.84-1.52,.63-2.72-.44-3.92-.85-.97-2.07-.47-3.61-1.59-.16-.11-1.86-1.4-1.65-2.82,.28-1.81,3.31-3.2,5.78-3.23Z"/><path class="cls-2" d="M51.41,20.87c1.75-.01,3.98,.88,4.52,2.36,.57,1.56-1.2,2.82-.43,3.92,.57,.8,1.7,.44,2.36,1.29,.75,.98,.37,2.89-.96,3.64-1.77,.99-4.71-.26-5.48-1.67-.68-1.25,.48-2.24-.38-3.23-.68-.8-1.65-.39-2.88-1.32-.12-.09-1.5-1.16-1.36-2.35,.19-1.51,2.62-2.64,4.6-2.65Z"/><path class="cls-14" d="M51.91,21.75c1.32,0,3.01,.72,3.41,1.88,.43,1.22-.9,2.21-.32,3.07,.42,.63,1.27,.34,1.76,1.01,.56,.76,.27,2.25-.71,2.84-1.31,.78-3.48-.18-4.06-1.28-.52-.98,.33-1.76-.31-2.54-.52-.63-1.23-.3-2.16-1.04-.09-.07-1.14-.92-1.05-1.86,.12-1.2,1.93-2.08,3.43-2.07Z"/><path class="cls-30" d="M52.41,22.63c.88,.01,2.01,.54,2.28,1.38,.29,.89-.59,1.6-.2,2.22,.28,.45,.84,.24,1.17,.72,.37,.55,.19,1.62-.45,2.05-.85,.57-2.27-.11-2.67-.91-.35-.71,.2-1.28-.23-1.85-.35-.46-.81-.22-1.43-.76-.06-.05-.76-.68-.72-1.37,.06-.88,1.25-1.51,2.26-1.5Z"/><path class="cls-25" d="M52.92,23.52c.44,.02,1,.35,1.15,.88,.15,.55-.27,.99-.07,1.38,.14,.28,.42,.15,.58,.45,.19,.34,.11,1-.2,1.27-.4,.36-1.1-.06-1.3-.56-.18-.44,.07-.8-.15-1.15-.18-.29-.4-.14-.71-.48-.03-.03-.39-.43-.38-.86,0-.55,.59-.94,1.08-.92Z"/></g><g><path class="cls-33" d="M147,59.28h-5.88V29.82l-6.96,29.46h-3.48l-6.9-29.46v29.46h-5.88V19.26h9.06l5.52,25.14,5.58-25.14h8.94V59.28Z"/><path class="cls-33" d="M179.1,19.26v27.12c0,5.04-.6,7.62-2.28,9.9-1.74,2.34-4.68,3.6-8.28,3.6s-6.6-1.26-8.34-3.6c-1.68-2.28-2.28-4.86-2.28-9.9V19.26h6.18v28.14c0,4.74,1.26,6.66,4.44,6.66s4.38-1.92,4.38-6.66V19.26h6.18Z"/><path class="cls-33" d="M205.02,30.42c-.96-3.96-2.76-5.94-5.28-5.94-2.28,0-4.02,1.74-4.02,4.08,0,1.38,.6,2.88,1.68,4.02q1.02,1.14,5.28,4.38c3.36,2.64,4.62,3.78,5.94,5.4,1.62,1.98,2.58,4.62,2.58,7.32,0,6.06-4.44,10.2-10.98,10.2s-10.86-3.66-12.12-11.28l5.94-1.74c.78,4.8,2.88,7.2,6.18,7.2,2.7,0,4.56-1.86,4.56-4.56,0-2.52-1.26-4.14-5.94-7.8-5.58-4.38-5.82-4.62-7.32-6.54-1.44-1.86-2.22-4.2-2.22-6.66,0-5.76,4.32-9.84,10.44-9.84,5.7,0,9.54,3.42,11.22,10.02l-5.94,1.74Z"/><path class="cls-33" d="M226.5,59.28h-6.18V19.26h6.18V59.28Z"/><path class="cls-33" d="M252.48,32.28v-.84c0-4.62-1.62-6.96-4.68-6.96-1.68,0-3,.72-3.66,1.98-.78,1.32-.96,2.52-.96,5.76v13.32c0,3.06,.18,4.62,.66,5.94,.6,1.56,2.16,2.58,3.96,2.58,2.28,0,3.78-1.32,4.44-3.96,.24-1.02,.3-1.92,.36-4.86h6.24v1.38c0,8.7-3.78,13.26-10.98,13.26-4.02,0-7.2-1.56-8.94-4.44-1.5-2.46-1.92-4.8-1.92-10.74v-11.22c0-6.36,.48-8.58,2.34-11.1,1.74-2.4,4.74-3.72,8.46-3.72,6.84,0,10.86,4.56,10.86,12.42v1.2h-6.18Z"/><path class="cls-33" d="M275.04,41.64v17.64h-6.18V19.26h6.18v16.68h8.82V19.26h6.18V59.28h-6.18v-17.64h-8.82Z"/><path class="cls-33" d="M307.14,50.58l-1.62,8.7h-6.06l7.68-40.02h8.46l8.1,40.02h-6.36l-1.68-8.7h-8.52Zm4.2-23.64l-3.24,17.94h6.54l-3.3-17.94Z"/><path class="cls-33" d="M338.94,59.28h-6.18V19.26h6.18V59.28Z"/><path class="cls-33" d="M372.06,59.28h-5.52l-10.8-26.64v26.64h-5.88V19.26h6.24l10.08,24.9V19.26h5.88V59.28Z"/></g></g></svg>